<?xml version="1.0" encoding="UTF-8"?>
<svg xmlns="http://www.w3.org/2000/svg" xmlns:xlink="http://www.w3.org/1999/xlink" width="375pt" height="374.999991pt" viewBox="0 0 375 374.999991" version="1.2">
<defs>
<clipPath id="clip1">
  <path d="M 212 153 L 248.789062 153 L 248.789062 195 L 212 195 Z M 212 153 "/>
</clipPath>
</defs>
<g id="surface1">
<path style=" stroke:none;fill-rule:nonzero;fill:rgb(81.959534%,59.609985%,41.958618%);fill-opacity:1;" d="M 202.136719 141.027344 C 202.332031 140.742188 202.707031 140.460938 202.984375 140.242188 C 204.667969 138.894531 210.179688 136.710938 215.894531 135.886719 C 219.941406 135.304688 224.402344 133.558594 224.402344 133.558594 L 227.171875 136.097656 C 227.171875 136.097656 221.320312 138.300781 215.316406 140.382812 C 209.492188 142.402344 205.324219 144.117188 202.347656 144.890625 C 201.203125 144.910156 201.546875 141.664062 202.136719 141.027344 "/>
<path style=" stroke:none;fill-rule:nonzero;fill:rgb(81.959534%,59.609985%,41.958618%);fill-opacity:1;" d="M 202.863281 140.515625 C 203.980469 139.816406 207.632812 142.929688 207.769531 143.074219 C 203.339844 146.269531 185.605469 163.738281 181.367188 160 C 181.367188 160 176.492188 157.988281 182.511719 154.007812 C 185.960938 151.722656 192.972656 147.21875 195.488281 145.628906 C 197.230469 144.53125 201.492188 141.652344 202.863281 140.515625 "/>
<path style=" stroke:none;fill-rule:nonzero;fill:rgb(2.749634%,1.959229%,1.568604%);fill-opacity:1;" d="M 226.164062 132.191406 L 222.796875 135.460938 C 224.296875 137.734375 228.015625 142.742188 229.617188 146.390625 C 232.234375 152.34375 236.214844 154.796875 240.015625 156.898438 C 240.230469 157.015625 240.191406 156.78125 240.175781 156.546875 C 240.15625 156.335938 240.15625 156.125 240.375 156.175781 C 241.46875 156.605469 248.191406 157.511719 247.726562 156.050781 C 245.542969 152.636719 239.449219 146.996094 232.355469 138.992188 C 229.90625 136.234375 227.808594 133.949219 226.164062 132.191406 "/>
<path style=" stroke:none;fill-rule:nonzero;fill:rgb(89.019775%,64.709473%,45.489502%);fill-opacity:1;" d="M 222.796875 135.460938 C 222.796875 135.460938 221.1875 134.132812 219.59375 133.914062 C 218 133.695312 216.511719 133.453125 216.523438 130.421875 C 216.539062 127.386719 216.84375 127.628906 215.652344 124.023438 C 214.460938 120.421875 214.65625 118.253906 215.742188 117.257812 C 216.828125 116.261719 217.429688 119.007812 217.460938 120.226562 C 217.496094 121.445312 218.375 122.679688 219.859375 124.167969 C 221.347656 125.652344 223.574219 128.355469 224.523438 130.070312 L 226.164062 132.191406 L 222.796875 135.460938 "/>
<path style=" stroke:none;fill-rule:nonzero;fill:rgb(2.749634%,1.959229%,1.568604%);fill-opacity:1;" d="M 213.21875 176.03125 C 213.21875 176.03125 221.898438 173.542969 225.777344 171.738281 C 229.273438 170.117188 227.457031 179.183594 227.484375 181.328125 C 227.589844 190.332031 222.554688 193.597656 222.554688 193.597656 C 222.554688 193.597656 222.066406 192.761719 220.59375 193.074219 C 219.121094 193.390625 220.441406 194.070312 219.226562 193.082031 C 218.003906 192.097656 213.21875 176.03125 213.21875 176.03125 "/>
<g clip-path="url(#clip1)" clip-rule="nonzero">
<path style=" stroke:none;fill-rule:nonzero;fill:rgb(2.749634%,1.959229%,1.568604%);fill-opacity:1;" d="M 223.007812 192.808594 C 227.726562 187.253906 235.625 180.015625 245.511719 165.921875 C 246.808594 164.074219 248.90625 158.753906 248.25 156.929688 C 246.914062 154.144531 243.242188 152.3125 242.246094 153.734375 C 238.84375 154.546875 237.28125 157.578125 234.058594 161.441406 C 230.242188 166.007812 222.769531 172.289062 214.6875 176.667969 C 209.011719 179.746094 216.25 188.867188 218.929688 194.273438 L 223.007812 192.808594 "/>
</g>
<path style=" stroke:none;fill-rule:nonzero;fill:rgb(89.019775%,64.709473%,45.489502%);fill-opacity:1;" d="M 178.425781 145.292969 C 178.425781 145.292969 180.195312 147.359375 179.085938 150.613281 C 178.390625 152.648438 185.167969 150.828125 185.1875 149.835938 C 185.21875 148.085938 184.914062 145.773438 185.632812 144.296875 C 185.632812 144.296875 181.210938 145.808594 178.425781 145.292969 "/>
<path style=" stroke:none;fill-rule:nonzero;fill:rgb(89.019775%,64.709473%,45.489502%);fill-opacity:1;" d="M 213.746094 177.40625 C 212.175781 176.03125 199.234375 172.527344 193.710938 164.820312 C 187.574219 157.285156 187.882812 151.765625 185.21875 147.09375 C 184.3125 145.503906 181.28125 145.558594 181.394531 145.769531 C 180.449219 146.878906 178.613281 149.8125 177.851562 157.539062 C 177.675781 157.21875 175.105469 163.058594 183.417969 166.847656 C 185.449219 167.5625 184.410156 170.171875 189.347656 176.160156 C 192.726562 180.253906 196.171875 181.136719 205.453125 187.570312 C 206.851562 183.652344 212.636719 181.394531 213.746094 177.40625 "/>
<path style=" stroke:none;fill-rule:nonzero;fill:rgb(89.019775%,64.709473%,45.489502%);fill-opacity:1;" d="M 190.777344 137.117188 C 190.183594 142.292969 188.117188 144.78125 181.132812 146.054688 C 173.378906 147.464844 172.585938 145.636719 171.734375 141.660156 C 171.257812 139.433594 171.574219 139.4375 171.449219 137.519531 C 171.132812 132.738281 173.367188 127.726562 173.367188 127.726562 C 175.421875 125.621094 181.910156 125.703125 184.820312 126.039062 C 190.207031 126.648438 191.480469 130.964844 190.777344 137.117188 "/>
<path style=" stroke:none;fill-rule:nonzero;fill:rgb(89.019775%,64.709473%,45.489502%);fill-opacity:1;" d="M 171.914062 133.359375 C 171.914062 133.359375 170.5 138.933594 170.269531 139.339844 C 170.046875 139.746094 169.789062 140.464844 171.101562 140.59375 C 172.460938 140.726562 172.84375 140.210938 172.84375 140.210938 L 171.914062 133.359375 "/>
<path style=" stroke:none;fill-rule:nonzero;fill:rgb(25.489807%,14.898682%,12.939453%);fill-opacity:1;" d="M 191.472656 133.625 C 191.195312 128.601562 188.039062 122.816406 178.828125 123.460938 C 177.523438 123.550781 172.292969 124.890625 171.554688 129.167969 C 171.28125 130.75 173.621094 128.839844 173.621094 128.839844 C 173.621094 128.839844 173.859375 130.28125 175.429688 129.425781 C 175.519531 129.378906 175.613281 129.335938 175.714844 129.296875 C 175.722656 129.394531 175.734375 129.492188 175.746094 129.597656 C 175.746094 129.597656 177.914062 136.371094 180.578125 138.898438 C 182.707031 140.914062 181.695312 143.910156 184.847656 145.421875 C 184.847656 145.421875 188.078125 145.539062 190.277344 141.332031 C 191.925781 138.175781 191.542969 134.882812 191.472656 133.625 "/>
<path style=" stroke:none;fill-rule:nonzero;fill:rgb(25.489807%,14.898682%,12.939453%);fill-opacity:1;" d="M 178.949219 126.109375 C 173.351562 124.914062 171.527344 129.425781 171.527344 129.425781 C 171.527344 129.425781 171.507812 129.769531 171.570312 129.988281 C 171.707031 131.125 171.855469 131.492188 172.410156 132.515625 C 172.394531 132.402344 172.382812 132.335938 172.382812 132.335938 C 177.324219 142.121094 187.761719 137.355469 187.761719 137.355469 C 187.761719 137.355469 186.222656 127.667969 178.949219 126.109375 "/>
<path style=" stroke:none;fill-rule:nonzero;fill:rgb(15.289307%,8.239746%,6.669617%);fill-opacity:1;" d="M 175.742188 126.832031 C 174.214844 127.179688 172.953125 127.921875 172.179688 128.460938 C 172.777344 127.691406 173.863281 126.664062 175.585938 126.269531 C 176.605469 126.039062 177.738281 126.054688 178.949219 126.3125 C 181.914062 126.945312 184.269531 128.992188 185.957031 132.398438 C 186.5 133.496094 186.882812 134.570312 187.144531 135.433594 C 183.496094 127.070312 178.984375 126.089844 175.742188 126.832031 Z M 183.921875 132.097656 C 181.609375 129.863281 177.882812 127.417969 173.285156 128.46875 C 173.066406 128.515625 172.84375 128.574219 172.625 128.640625 C 173.386719 128.140625 174.511719 127.535156 175.835938 127.230469 C 179 126.511719 183.414062 127.484375 186.972656 135.78125 C 186.296875 134.777344 185.261719 133.394531 183.921875 132.097656 Z M 172.046875 130.132812 L 172.042969 130.007812 C 176.644531 131.652344 184.84375 135.996094 187.125 137.21875 C 180.640625 137.699219 172.898438 130.902344 172.046875 130.132812 Z M 172.59375 131.058594 C 173.5 131.824219 175.136719 133.128906 177.128906 134.367188 C 179.410156 135.78125 182.542969 137.34375 185.609375 137.609375 C 182.445312 138.011719 176.871094 137.574219 172.59375 131.058594 Z M 172.511719 132.257812 L 172.070312 130.800781 C 174.253906 134.335938 177.046875 136.621094 180.382812 137.59375 C 181.851562 138.023438 183.226562 138.136719 184.386719 138.105469 C 180.972656 138.683594 175.625 138.398438 172.511719 132.257812 Z M 186.945312 136.710938 C 184.464844 135.378906 177.136719 131.527344 172.609375 129.808594 C 173.425781 129.746094 174.847656 129.753906 176.675781 130.21875 C 179.179688 130.851562 182.933594 132.496094 186.945312 136.710938 Z M 171.648438 129.417969 C 172.226562 129.183594 172.808594 129 173.378906 128.871094 C 177.871094 127.84375 181.503906 130.230469 183.765625 132.410156 C 185.128906 133.726562 186.167969 135.125 186.828125 136.117188 C 182.863281 132.058594 179.167969 130.449219 176.6875 129.820312 C 174.328125 129.21875 172.628906 129.371094 172 129.464844 L 172.050781 129.390625 L 171.679688 129.511719 Z M 186.203125 132.21875 C 185 129.792969 182.769531 126.726562 178.949219 125.910156 C 177.707031 125.644531 176.542969 125.632812 175.496094 125.871094 C 173.539062 126.3125 172.394531 127.457031 171.78125 128.59375 C 171.492188 129.074219 171.429688 129.441406 171.492188 129.820312 L 171.589844 130.152344 L 171.492188 129.820312 C 171.953125 132.75 172.976562 133.605469 172.925781 133.605469 C 176.503906 139.332031 182.175781 139.058594 185.355469 138.332031 C 186.832031 138 187.816406 137.550781 187.824219 137.546875 L 187.929688 137.5 L 187.90625 137.34375 C 187.890625 137.242188 187.5 134.84375 186.203125 132.21875 "/>
<path style=" stroke:none;fill-rule:nonzero;fill:rgb(15.289307%,8.239746%,6.669617%);fill-opacity:1;" d="M 171.851562 129.957031 L 171.824219 129.925781 L 171.863281 129.941406 Z M 171.851562 129.957031 "/>
<path style=" stroke:none;fill-rule:nonzero;fill:rgb(96.078491%,47.44873%,47.059631%);fill-opacity:1;" d="M 191.324219 157.894531 C 189.21875 154.429688 188 152.921875 187.152344 150.8125 C 187.152344 150.8125 184.402344 147.351562 180.988281 151.316406 C 178.695312 153.980469 178.082031 156.960938 178.082031 156.964844 C 177.910156 156.644531 172.84375 166.324219 182.847656 170.355469 C 184.777344 171.132812 183.066406 173.851562 192.046875 180.765625 C 194.769531 182.863281 202.085938 187.382812 202.085938 187.570312 C 205.941406 184.085938 212.757812 177.644531 213.21875 176.03125 C 209.390625 173.851562 201.304688 174.316406 191.324219 157.894531 "/>
<path style=" stroke:none;fill-rule:nonzero;fill:rgb(89.019775%,64.709473%,45.489502%);fill-opacity:1;" d="M 215.601562 253.917969 C 215.601562 253.917969 215.414062 258.164062 215.699219 259.878906 C 215.898438 261.089844 216.742188 261.523438 216.707031 262.652344 C 216.65625 264.363281 215.808594 265.847656 212.585938 265.425781 C 209.363281 265.007812 208.589844 264.722656 204.597656 265.5 C 200.605469 266.277344 198.332031 265.777344 197.417969 264.5 C 196.5 263.21875 199.5 262.953125 200.800781 263.078125 C 202.101562 263.203125 203.292969 262.058594 205.308594 261.070312 C 207.792969 259.851562 209.09375 259.675781 209.636719 259.285156 C 211.273438 258.09375 210.515625 256.132812 210.339844 253.742188 L 215.601562 253.917969 "/>
<path style=" stroke:none;fill-rule:nonzero;fill:rgb(81.959534%,59.609985%,41.958618%);fill-opacity:1;" d="M 131.953125 158.960938 L 131.066406 157.246094 C 129.871094 157.160156 128.523438 157.050781 126.960938 156.738281 C 125.03125 156.355469 127.050781 157.734375 128.574219 158 C 129.121094 158.09375 131.164062 158.585938 131.953125 158.960938 "/>
<path style=" stroke:none;fill-rule:nonzero;fill:rgb(89.019775%,64.709473%,45.489502%);fill-opacity:1;" d="M 156.523438 158.894531 C 156.257812 159.113281 155.816406 159.285156 155.496094 159.421875 C 153.507812 160.261719 147.890625 160.136719 143.175781 159.34375 C 139.140625 158.664062 134.394531 159.59375 134.394531 159.59375 L 133.445312 157.507812 C 133.445312 157.507812 137.910156 156.617188 144.378906 155.703125 C 150.484375 154.839844 154.296875 155.058594 157.371094 155.117188 C 158.476562 155.410156 157.261719 158.441406 156.523438 158.894531 "/>
<path style=" stroke:none;fill-rule:nonzero;fill:rgb(89.019775%,64.709473%,45.489502%);fill-opacity:1;" d="M 155.609375 159.355469 C 154.292969 159.28125 153.714844 155.394531 153.6875 155.195312 C 159.152344 155.171875 184.699219 150.714844 185.960938 156.214844 C 185.960938 156.214844 188.75 160.679688 181.527344 160.417969 C 177.390625 160.269531 169.058594 159.859375 166.085938 159.6875 C 164.03125 159.570312 157.390625 159.230469 155.609375 159.355469 "/>
<path style=" stroke:none;fill-rule:nonzero;fill:rgb(89.019775%,64.709473%,45.489502%);fill-opacity:1;" d="M 131.425781 160.066406 C 131.425781 160.066406 126.597656 158.785156 124.679688 158.984375 C 122.761719 159.179688 119.867188 158.214844 122.3125 158.019531 C 128.324219 157.542969 131.410156 155.511719 134.851562 157.242188 C 135.339844 157.488281 134.972656 159.132812 134.015625 159.9375 C 133.457031 160.410156 131.425781 160.066406 131.425781 160.066406 "/>
<path style=" stroke:none;fill-rule:nonzero;fill:rgb(89.019775%,64.709473%,45.489502%);fill-opacity:1;" d="M 128.800781 159.472656 L 127.410156 158.136719 C 126.25 158.441406 124.9375 158.769531 123.355469 158.976562 C 121.40625 159.234375 123.765625 159.886719 125.296875 159.648438 C 125.84375 159.5625 127.933594 159.371094 128.800781 159.472656 "/>
<path style=" stroke:none;fill-rule:nonzero;fill:rgb(89.019775%,64.709473%,45.489502%);fill-opacity:1;" d="M 129.507812 159.3125 L 128.074219 158.496094 C 126.9375 158.851562 125.648438 159.238281 124.089844 159.570312 C 122.164062 159.980469 124.53125 160.1875 126.035156 159.839844 C 126.574219 159.71875 128.640625 159.339844 129.507812 159.3125 "/>
<path style=" stroke:none;fill-rule:nonzero;fill:rgb(89.019775%,64.709473%,45.489502%);fill-opacity:1;" d="M 130.8125 159.140625 L 129.414062 158.722656 C 128.289062 159.09375 127.011719 159.511719 125.472656 159.914062 C 123.570312 160.414062 125.894531 160.304688 127.386719 159.894531 C 127.917969 159.75 129.960938 159.253906 130.8125 159.140625 "/>
<path style=" stroke:none;fill-rule:nonzero;fill:rgb(10.198975%,8.628845%,10.198975%);fill-opacity:1;" d="M 215.601562 253.917969 C 215.820312 251.453125 216.320312 248.464844 216.824219 245.46875 C 217.878906 239.203125 218.570312 234.679688 217.246094 228.007812 C 216.820312 225.339844 217.421875 224.257812 217.621094 222.347656 C 218.4375 219.308594 220.371094 203.449219 221.402344 200.90625 C 223.128906 192.113281 228.367188 182.628906 214.433594 176.695312 L 203.558594 189.550781 C 205.386719 196.980469 207.6875 212.011719 208.699219 221.597656 C 208.9375 223.84375 209.519531 240.035156 210.035156 246.558594 C 210.261719 249.464844 210.160156 252.003906 210.375 254.121094 L 215.601562 253.917969 "/>
<path style=" stroke:none;fill-rule:nonzero;fill:rgb(13.729858%,12.159729%,14.509583%);fill-opacity:1;" d="M 214.839844 176.90625 L 203.558594 189.550781 L 201.796875 187.179688 L 212.097656 175.5 L 214.839844 176.90625 "/>
<path style=" stroke:none;fill-rule:nonzero;fill:rgb(15.289307%,8.239746%,6.669617%);fill-opacity:1;" d="M 194.378906 133.28125 C 194.378906 133.28125 192.972656 139.09375 194.285156 141.851562 C 195.585938 144.582031 196.945312 146.066406 196.636719 148.339844 C 196.328125 150.613281 195.835938 153.292969 196.378906 155.121094 C 196.917969 156.949219 197.449219 157.410156 196.648438 159.585938 C 195.847656 161.761719 196.015625 163.941406 196.5 165.878906 C 196.980469 167.820312 197.234375 169.933594 196.601562 171.738281 C 196.601562 171.738281 198.050781 170.171875 197.703125 167.882812 C 197.359375 165.59375 197.25 163.128906 197.832031 161.382812 C 198.410156 159.640625 198.859375 158.371094 198.324219 155.996094 C 197.785156 153.617188 198.324219 152.082031 198.832031 149.441406 C 199.339844 146.796875 200.105469 144.679688 199.394531 142.570312 C 198.679688 140.460938 198.394531 138.609375 198.3125 137.238281 C 198.1875 135.171875 198.859375 131.304688 195.515625 132.0625 C 193.714844 132.464844 195.460938 132.453125 194.378906 133.28125 "/>
<path style=" stroke:none;fill-rule:nonzero;fill:rgb(15.289307%,8.239746%,6.669617%);fill-opacity:1;" d="M 191.460938 135.402344 C 191.460938 135.402344 192.335938 136.335938 192.554688 141.859375 C 192.675781 144.878906 195.214844 146.074219 194.90625 148.347656 C 194.597656 150.621094 194.105469 153.300781 194.648438 155.128906 C 195.191406 156.957031 195.71875 157.417969 194.917969 159.59375 C 194.117188 161.769531 194.289062 163.949219 194.769531 165.890625 C 195.253906 167.828125 195.503906 169.941406 194.871094 171.746094 C 194.871094 171.746094 196.320312 170.179688 195.976562 167.890625 C 195.628906 165.601562 195.519531 163.136719 196.101562 161.394531 C 196.679688 159.648438 197.132812 158.378906 196.59375 156 C 196.054688 153.625 196.59375 152.09375 197.101562 149.449219 C 197.609375 146.804688 198.375 144.6875 197.664062 142.578125 C 196.949219 140.464844 196.667969 138.617188 196.585938 137.246094 C 196.460938 135.175781 197.128906 131.3125 193.789062 132.066406 C 191.988281 132.472656 192.542969 134.570312 191.460938 135.402344 "/>
<path style=" stroke:none;fill-rule:nonzero;fill:rgb(15.289307%,8.239746%,6.669617%);fill-opacity:1;" d="M 196.988281 134.410156 C 196.988281 134.410156 197.800781 139.074219 196.507812 141.84375 C 195.234375 144.582031 193.890625 146.082031 194.214844 148.351562 C 194.542969 150.621094 195.054688 153.296875 194.527344 155.128906 C 194.003906 156.964844 193.480469 157.429688 194.296875 159.597656 C 195.117188 161.765625 194.96875 163.945312 194.5 165.890625 C 194.03125 167.832031 193.800781 169.949219 194.445312 171.75 C 194.445312 171.75 192.984375 170.191406 193.3125 167.902344 C 193.636719 165.609375 193.722656 163.144531 193.128906 161.402344 C 192.535156 159.664062 192.074219 158.398438 192.589844 156.015625 C 193.113281 153.636719 192.5625 152.109375 192.03125 149.46875 C 191.496094 146.832031 190.714844 144.71875 191.410156 142.601562 C 192.105469 140.488281 192.371094 138.632812 192.441406 137.261719 C 192.550781 135.191406 191.851562 131.335938 195.195312 132.0625 C 197 132.453125 195.898438 133.589844 196.988281 134.410156 "/>
<path style=" stroke:none;fill-rule:nonzero;fill:rgb(19.999695%,11.369324%,9.408569%);fill-opacity:1;" d="M 193.484375 142.59375 C 193.90625 139.753906 191.027344 139.140625 192.828125 133.496094 C 193.683594 130.820312 195.652344 128.332031 196.195312 135.160156 C 196.664062 141.109375 194.28125 147.042969 195.398438 156.085938 C 195.746094 158.894531 196.351562 163.378906 195.886719 165.667969 C 195.421875 167.957031 195.191406 170.453125 195.839844 172.574219 C 195.839844 172.574219 193.46875 170.929688 193.945312 168.28125 C 195.714844 158.410156 193.40625 163.886719 193.492188 156.222656 C 193.527344 153.441406 192.492188 151.804688 192.34375 150.003906 C 191.996094 145.796875 193.625 145.667969 193.484375 142.59375 "/>
<path style=" stroke:none;fill-rule:nonzero;fill:rgb(25.489807%,14.898682%,12.939453%);fill-opacity:1;" d="M 197.902344 142.578125 C 197.457031 139.742188 201.011719 136.453125 197.492188 131.90625 C 194.917969 128.589844 189.996094 131.992188 190.714844 133.355469 C 190.859375 133.640625 190.648438 135.5 191.359375 135.410156 C 194.238281 135.035156 197.890625 148.425781 195.328125 157.109375 C 194.5625 159.699219 195.210938 163.382812 195.695312 165.671875 C 196.179688 167.957031 196.433594 170.449219 195.804688 172.574219 C 195.804688 172.574219 198.15625 170.90625 197.660156 168.265625 C 195.808594 158.410156 198.160156 163.867188 198.007812 156.203125 C 197.953125 153.421875 198.972656 151.777344 199.105469 149.976562 C 199.421875 145.765625 197.792969 145.648438 197.902344 142.578125 "/>
<path style=" stroke:none;fill-rule:nonzero;fill:rgb(96.078491%,47.44873%,47.059631%);fill-opacity:1;" d="M 191.710938 134.886719 C 191.667969 135.417969 191.679688 135.878906 191.148438 135.835938 C 190.617188 135.796875 190.78125 135.226562 190.824219 134.695312 L 191.039062 132.046875 C 191.082031 131.519531 190.984375 131.226562 191.515625 131.269531 C 192.046875 131.3125 191.96875 131.710938 191.925781 132.238281 L 191.710938 134.886719 "/>
<path style=" stroke:none;fill-rule:nonzero;fill:rgb(89.019775%,64.709473%,45.489502%);fill-opacity:1;" d="M 225.3125 132.859375 C 225.222656 132.992188 225.265625 133.1875 225.402344 133.328125 C 225.402344 133.328125 225.589844 133.570312 225.800781 133.585938 C 225.859375 133.589844 225.941406 133.570312 226.007812 133.507812 C 225.941406 133.601562 225.664062 133.90625 225.511719 134.179688 C 225.425781 134.328125 225.464844 134.648438 225.589844 134.792969 C 225.746094 134.964844 226.074219 135.324219 226.511719 135.035156 C 226.582031 134.992188 226.855469 134.855469 226.910156 134.828125 L 226.417969 135.363281 C 226.257812 135.558594 226.414062 135.925781 226.601562 136.101562 C 226.75 136.242188 227.023438 136.484375 227.257812 136.363281 C 227.304688 136.339844 227.636719 136.050781 228.054688 135.6875 C 228.03125 135.722656 227.726562 136.023438 227.703125 136.066406 C 227.625 136.207031 227.691406 136.582031 227.835938 136.746094 C 227.953125 136.882812 228.269531 137.007812 228.488281 136.914062 C 228.761719 136.789062 229.070312 136.585938 229.074219 136.582031 L 229.113281 136.546875 L 229.164062 136.503906 L 229.511719 136.1875 C 229.824219 135.898438 230.203125 135.523438 230.347656 135.285156 C 230.476562 135.082031 230.386719 134.75 230.269531 134.617188 C 230.125 134.453125 229.902344 134.214844 229.75 134.277344 C 229.703125 134.296875 229.664062 134.316406 229.625 134.339844 C 229.652344 134.300781 229.679688 134.265625 229.710938 134.21875 C 229.859375 134.003906 229.652344 133.703125 229.535156 133.535156 C 229.382812 133.328125 229.039062 133.125 228.824219 133.257812 L 228.742188 133.316406 C 228.777344 133.265625 228.8125 133.207031 228.855469 133.136719 C 228.988281 132.910156 228.597656 132.46875 228.445312 132.292969 C 228.320312 132.152344 228.042969 132 227.882812 132.0625 C 227.589844 132.183594 227.625 132.183594 227.527344 132.238281 C 227.59375 132.183594 227.660156 132.015625 227.664062 131.957031 C 227.675781 131.746094 227.460938 131.527344 227.460938 131.527344 C 227.339844 131.375 227.148438 131.304688 227.007812 131.382812 C 226.753906 131.511719 225.476562 132.628906 225.3125 132.859375 "/>
<path style=" stroke:none;fill-rule:nonzero;fill:rgb(3.138733%,2.349854%,1.959229%);fill-opacity:1;" d="M 228.308594 136.96875 C 228.265625 136.96875 228.222656 136.964844 228.179688 136.957031 C 228.066406 136.933594 227.964844 136.890625 227.867188 136.816406 C 227.777344 136.746094 227.722656 136.636719 227.6875 136.53125 C 227.652344 136.425781 227.632812 136.3125 227.640625 136.195312 C 227.644531 136.148438 227.648438 136.109375 227.667969 136.070312 L 227.441406 136.261719 L 227.285156 136.398438 C 227.222656 136.425781 227.171875 136.441406 227.117188 136.441406 C 227.09375 136.441406 227.070312 136.4375 227.046875 136.433594 C 226.890625 136.398438 226.773438 136.3125 226.664062 136.21875 C 226.554688 136.136719 226.445312 136.019531 226.382812 135.886719 C 226.324219 135.753906 226.277344 135.609375 226.324219 135.441406 C 226.335938 135.398438 226.359375 135.378906 226.375 135.34375 C 226.40625 135.304688 226.425781 135.289062 226.449219 135.261719 L 226.59375 135.105469 L 226.710938 134.980469 L 226.601562 135.039062 L 226.429688 135.121094 C 226.371094 135.15625 226.304688 135.164062 226.238281 135.175781 C 226.222656 135.175781 226.207031 135.179688 226.191406 135.179688 C 226.074219 135.179688 225.957031 135.144531 225.859375 135.078125 C 225.75 135.007812 225.65625 134.917969 225.578125 134.824219 C 225.539062 134.769531 225.503906 134.710938 225.480469 134.648438 C 225.46875 134.585938 225.441406 134.527344 225.441406 134.457031 C 225.445312 134.394531 225.429688 134.320312 225.457031 134.261719 L 225.480469 134.175781 C 225.5 134.136719 225.519531 134.121094 225.535156 134.089844 C 225.65625 133.917969 225.777344 133.746094 225.914062 133.585938 C 225.894531 133.59375 225.875 133.597656 225.855469 133.597656 C 225.855469 133.597656 225.851562 133.597656 225.851562 133.597656 L 225.757812 133.59375 L 225.667969 133.566406 C 225.558594 133.511719 225.46875 133.425781 225.394531 133.335938 L 225.320312 133.230469 C 225.296875 133.191406 225.289062 133.148438 225.273438 133.109375 C 225.269531 133.09375 225.265625 133.078125 225.265625 133.0625 C 225.277344 133.15625 225.324219 133.25 225.402344 133.328125 C 225.402344 133.328125 225.589844 133.570312 225.800781 133.585938 C 225.804688 133.585938 225.808594 133.585938 225.816406 133.585938 C 225.871094 133.585938 225.949219 133.566406 226.007812 133.507812 C 225.941406 133.601562 225.664062 133.90625 225.511719 134.179688 C 225.425781 134.328125 225.464844 134.648438 225.589844 134.792969 C 225.703125 134.917969 225.910156 135.144531 226.1875 135.144531 C 226.289062 135.144531 226.394531 135.113281 226.511719 135.035156 C 226.582031 134.992188 226.855469 134.855469 226.910156 134.828125 L 226.417969 135.363281 C 226.257812 135.558594 226.414062 135.925781 226.601562 136.101562 C 226.722656 136.214844 226.921875 136.398438 227.121094 136.398438 C 227.167969 136.398438 227.214844 136.386719 227.257812 136.363281 C 227.304688 136.339844 227.613281 136.070312 228.011719 135.722656 C 228.015625 135.722656 228.023438 135.714844 228.042969 135.703125 C 227.976562 135.777344 227.726562 136.027344 227.703125 136.066406 C 227.625 136.207031 227.691406 136.582031 227.835938 136.746094 C 227.925781 136.847656 228.128906 136.945312 228.316406 136.945312 C 228.375 136.945312 228.4375 136.9375 228.488281 136.914062 C 228.761719 136.789062 229.070312 136.585938 229.074219 136.582031 L 229.113281 136.546875 L 229.164062 136.503906 L 229.511719 136.1875 L 229.164062 136.511719 L 229.167969 136.507812 L 229.121094 136.554688 L 229.082031 136.589844 C 228.898438 136.71875 228.707031 136.816406 228.515625 136.925781 C 228.449219 136.957031 228.378906 136.96875 228.308594 136.96875 "/>
<path style=" stroke:none;fill-rule:nonzero;fill:rgb(58.039856%,41.569519%,32.939148%);fill-opacity:1;" d="M 225.265625 133.0625 C 225.265625 133.0625 225.265625 133.0625 225.265625 133.058594 C 225.265625 133.0625 225.265625 133.0625 225.265625 133.0625 M 225.265625 132.980469 L 225.269531 132.976562 C 225.265625 132.980469 225.265625 132.980469 225.265625 132.980469 "/>
<path style=" stroke:none;fill-rule:nonzero;fill:rgb(58.039856%,41.569519%,32.939148%);fill-opacity:1;" d="M 228.316406 136.945312 C 228.128906 136.945312 227.925781 136.847656 227.835938 136.746094 C 227.691406 136.582031 227.625 136.207031 227.703125 136.066406 C 227.726562 136.027344 227.976562 135.777344 228.042969 135.703125 C 228.046875 135.699219 228.054688 135.695312 228.0625 135.6875 L 228.085938 135.707031 L 227.859375 135.949219 L 227.75 136.066406 C 227.71875 136.097656 227.707031 136.160156 227.703125 136.203125 C 227.699219 136.304688 227.714844 136.410156 227.746094 136.511719 C 227.777344 136.613281 227.824219 136.707031 227.90625 136.773438 C 227.984375 136.835938 228.085938 136.882812 228.1875 136.902344 C 228.230469 136.914062 228.273438 136.917969 228.316406 136.917969 C 228.378906 136.917969 228.4375 136.90625 228.492188 136.882812 C 228.6875 136.785156 228.886719 136.691406 229.066406 136.574219 L 229.109375 136.539062 L 229.109375 136.542969 L 229.15625 136.496094 L 229.164062 136.496094 L 229.511719 136.1875 L 229.164062 136.503906 L 229.113281 136.546875 L 229.074219 136.582031 C 229.070312 136.585938 228.761719 136.789062 228.488281 136.914062 C 228.4375 136.9375 228.375 136.945312 228.316406 136.945312 M 227.121094 136.398438 C 226.921875 136.398438 226.722656 136.214844 226.601562 136.101562 C 226.414062 135.925781 226.257812 135.558594 226.417969 135.363281 L 226.910156 134.828125 C 226.855469 134.855469 226.582031 134.992188 226.511719 135.035156 C 226.394531 135.113281 226.289062 135.144531 226.1875 135.144531 C 225.910156 135.144531 225.703125 134.917969 225.589844 134.792969 C 225.464844 134.648438 225.425781 134.328125 225.511719 134.179688 C 225.664062 133.90625 225.941406 133.601562 226.007812 133.507812 C 225.949219 133.566406 225.871094 133.585938 225.816406 133.585938 C 225.808594 133.585938 225.804688 133.585938 225.800781 133.585938 C 225.589844 133.570312 225.402344 133.328125 225.402344 133.328125 C 225.324219 133.25 225.277344 133.15625 225.265625 133.0625 C 225.265625 133.0625 225.265625 133.0625 225.265625 133.058594 C 225.265625 133.035156 225.269531 133.007812 225.265625 132.980469 C 225.265625 132.980469 225.265625 132.980469 225.269531 132.976562 L 225.289062 132.921875 L 225.3125 132.859375 L 225.292969 132.921875 L 225.273438 132.980469 C 225.277344 133.023438 225.269531 133.066406 225.28125 133.105469 C 225.300781 133.144531 225.308594 133.1875 225.332031 133.222656 L 225.410156 133.324219 C 225.484375 133.410156 225.578125 133.488281 225.683594 133.535156 L 225.765625 133.558594 L 225.847656 133.558594 C 225.910156 133.558594 225.945312 133.511719 225.992188 133.492188 L 225.996094 133.492188 C 225.953125 133.535156 225.925781 133.558594 225.925781 133.558594 C 225.925781 133.558594 225.988281 133.523438 226.082031 133.453125 L 226.027344 133.523438 C 225.871094 133.714844 225.722656 133.917969 225.585938 134.121094 L 225.539062 134.191406 L 225.511719 134.28125 C 225.484375 134.34375 225.511719 134.398438 225.503906 134.457031 C 225.503906 134.511719 225.53125 134.570312 225.542969 134.628906 C 225.5625 134.683594 225.59375 134.730469 225.625 134.777344 C 225.773438 134.945312 225.964844 135.101562 226.179688 135.101562 C 226.195312 135.101562 226.214844 135.101562 226.230469 135.101562 C 226.289062 135.085938 226.34375 135.085938 226.394531 135.050781 L 226.558594 134.964844 L 226.890625 134.792969 L 227.019531 134.726562 C 226.949219 134.789062 226.910156 134.828125 226.910156 134.828125 C 226.910156 134.828125 226.96875 134.789062 227.070312 134.71875 L 226.941406 134.859375 L 226.664062 135.167969 L 226.523438 135.324219 L 226.457031 135.394531 L 226.414062 135.480469 C 226.382812 135.585938 226.417969 135.730469 226.476562 135.84375 C 226.53125 135.964844 226.617188 136.058594 226.726562 136.148438 C 226.828125 136.238281 226.941406 136.316406 227.0625 136.34375 C 227.078125 136.347656 227.097656 136.347656 227.117188 136.347656 C 227.160156 136.347656 227.199219 136.339844 227.234375 136.328125 L 227.394531 136.195312 L 228.035156 135.65625 L 228.054688 135.679688 C 228.027344 135.707031 228.011719 135.722656 228.011719 135.722656 C 227.613281 136.070312 227.304688 136.339844 227.257812 136.363281 C 227.214844 136.386719 227.167969 136.398438 227.121094 136.398438 "/>
<path style=" stroke:none;fill-rule:nonzero;fill:rgb(58.039856%,41.569519%,32.939148%);fill-opacity:1;" d="M 227.019531 134.726562 C 227.0625 134.683594 227.117188 134.628906 227.179688 134.570312 C 227.339844 134.417969 227.566406 134.226562 227.792969 134.035156 C 228.023438 133.847656 228.253906 133.660156 228.4375 133.53125 C 228.617188 133.398438 228.742188 133.316406 228.742188 133.316406 C 228.742188 133.316406 228.636719 133.421875 228.472656 133.574219 C 228.3125 133.726562 228.085938 133.917969 227.859375 134.113281 C 227.628906 134.296875 227.398438 134.484375 227.214844 134.613281 C 227.160156 134.65625 227.109375 134.691406 227.070312 134.71875 L 227.109375 134.675781 L 227.019531 134.726562 "/>
<path style=" stroke:none;fill-rule:nonzero;fill:rgb(39.219666%,28.239441%,24.308777%);fill-opacity:1;" d="M 226.910156 134.828125 C 226.910156 134.828125 226.949219 134.789062 227.019531 134.726562 L 227.109375 134.675781 L 227.070312 134.71875 C 226.96875 134.789062 226.910156 134.828125 226.910156 134.828125 "/>
<path style=" stroke:none;fill-rule:nonzero;fill:rgb(63.139343%,59.21936%,59.609985%);fill-opacity:1;" d="M 227.535156 132.234375 C 227.554688 132.222656 227.5625 132.214844 227.5625 132.214844 C 227.5625 132.214844 227.5625 132.214844 227.558594 132.21875 C 227.554688 132.222656 227.546875 132.226562 227.535156 132.234375 "/>
<path style=" stroke:none;fill-rule:nonzero;fill:rgb(58.039856%,41.569519%,32.939148%);fill-opacity:1;" d="M 225.996094 133.492188 C 226.035156 133.449219 226.097656 133.394531 226.167969 133.324219 C 226.3125 133.1875 226.515625 133.015625 226.714844 132.847656 C 226.921875 132.679688 227.128906 132.515625 227.292969 132.402344 C 227.40625 132.320312 227.492188 132.261719 227.535156 132.234375 C 227.546875 132.226562 227.554688 132.222656 227.558594 132.21875 C 227.542969 132.238281 227.453125 132.328125 227.324219 132.449219 C 227.179688 132.585938 226.976562 132.757812 226.777344 132.929688 C 226.566406 133.09375 226.363281 133.257812 226.199219 133.371094 C 226.15625 133.402344 226.117188 133.429688 226.082031 133.453125 L 226.085938 133.449219 L 225.996094 133.492188 "/>
<path style=" stroke:none;fill-rule:nonzero;fill:rgb(39.219666%,28.239441%,24.308777%);fill-opacity:1;" d="M 225.925781 133.558594 C 225.925781 133.558594 225.953125 133.535156 225.996094 133.492188 L 226.085938 133.449219 L 226.082031 133.453125 C 225.988281 133.523438 225.925781 133.558594 225.925781 133.558594 "/>
<path style=" stroke:none;fill-rule:nonzero;fill:rgb(58.039856%,41.569519%,32.939148%);fill-opacity:1;" d="M 228.0625 135.6875 L 228.054688 135.679688 C 228.09375 135.636719 228.160156 135.566406 228.242188 135.480469 C 228.382812 135.34375 228.582031 135.164062 228.777344 134.984375 C 228.980469 134.8125 229.1875 134.640625 229.34375 134.519531 C 229.5 134.398438 229.613281 134.324219 229.613281 134.324219 C 229.613281 134.324219 229.523438 134.421875 229.382812 134.5625 C 229.238281 134.707031 229.042969 134.882812 228.847656 135.0625 C 228.644531 135.234375 228.441406 135.40625 228.28125 135.527344 C 228.1875 135.597656 228.113281 135.652344 228.0625 135.6875 "/>
<path style=" stroke:none;fill-rule:nonzero;fill:rgb(3.529358%,2.749634%,2.349854%);fill-opacity:1;" d="M 228.011719 135.722656 C 228.027344 135.710938 228.042969 135.699219 228.054688 135.6875 C 228.050781 135.691406 228.046875 135.695312 228.042969 135.703125 C 228.023438 135.714844 228.015625 135.722656 228.011719 135.722656 "/>
<path style=" stroke:none;fill-rule:nonzero;fill:rgb(39.219666%,28.239441%,24.308777%);fill-opacity:1;" d="M 228.011719 135.722656 C 228.011719 135.722656 228.027344 135.707031 228.054688 135.679688 L 228.0625 135.6875 C 228.054688 135.695312 228.046875 135.699219 228.042969 135.703125 C 228.046875 135.695312 228.050781 135.691406 228.054688 135.6875 C 228.042969 135.699219 228.027344 135.710938 228.011719 135.722656 "/>
<path style="fill:none;stroke-width:3.453807;stroke-linecap:butt;stroke-linejoin:miter;stroke:rgb(0%,0%,0%);stroke-opacity:1;stroke-miterlimit:4;" d="M 44.001404 3.578223 C 44.172399 3.948711 44.091651 4.247951 43.754412 4.475944 C 42.414957 5.51141 41.341492 6.736869 40.529269 8.142823 L 30.141362 26.472466 C 29.072648 28.419902 28.535916 30.481334 28.535916 32.656762 L 28.535916 48.635234 C 28.535916 49.803695 28.953902 50.85816 29.785124 51.798629 C 29.984618 52.026622 30.022616 52.283113 29.90862 52.572854 C 29.794624 52.857844 29.571381 53.000339 29.234142 53.000339 L 17.977015 53.000339 C 17.611277 53.000339 17.359535 52.848344 17.231289 52.544355 C 17.098294 52.245114 17.164791 51.960124 17.426033 51.698882 C 18.205007 50.824911 18.589744 49.836944 18.589744 48.730231 L 18.589744 32.656762 C 18.589744 30.448085 18.034013 28.386653 16.922549 26.472466 L 6.525143 8.142823 C 6.121407 7.439846 5.660672 6.779618 5.138189 6.166888 C 4.625206 5.544658 4.031476 4.998426 3.361748 4.523442 L 3.3095 4.475944 C 3.181254 4.376197 3.091007 4.247951 3.043508 4.081707 C 2.99126 3.910712 3.00076 3.744468 3.067258 3.578223 C 3.195503 3.278983 3.413996 3.126988 3.717986 3.126988 L 3.665738 3.07474 L 16.324069 3.07474 C 16.656558 3.07474 16.884551 3.226735 16.998547 3.530725 C 17.117293 3.825215 17.079294 4.091206 16.875051 4.328699 C 16.442815 4.760934 16.376318 5.264418 16.675558 5.834399 L 23.054597 17.129525 C 23.154343 17.30052 23.311088 17.386017 23.534331 17.386017 C 23.752824 17.386017 23.914318 17.30052 24.009315 17.129525 L 30.388354 5.834399 C 30.692344 5.297667 30.640096 4.794183 30.241109 4.328699 C 30.003617 4.091206 29.951369 3.825215 30.079615 3.530725 C 30.22211 3.226735 30.459602 3.07474 30.792091 3.07474 L 43.398174 3.07474 L 43.398174 3.126988 C 43.668915 3.126988 43.868409 3.278983 44.001404 3.578223 Z M 85.082796 10.911981 C 86.892486 13.248904 88.260441 15.889816 89.19141 18.820469 C 90.131879 21.751123 90.602114 24.833771 90.602114 28.082663 C 90.602114 31.303057 90.131879 34.385705 89.19141 37.325858 C 88.260441 40.27076 86.892486 42.897423 85.082796 45.210597 C 83.173359 47.723264 80.945683 49.64695 78.399767 50.991156 C 75.858601 52.330612 73.17494 53.000339 70.358283 53.000339 C 67.541626 53.000339 64.857965 52.330612 62.297799 50.991156 C 59.742384 49.64695 57.505208 47.723264 55.591021 45.210597 C 53.81933 42.897423 52.460875 40.27076 51.520406 37.325858 C 50.589436 34.385705 50.123952 31.303057 50.123952 28.082663 C 50.123952 24.833771 50.589436 21.751123 51.520406 18.820469 C 52.460875 15.889816 53.81933 13.248904 55.591021 10.911981 C 57.505208 8.394564 59.742384 6.470878 62.297799 5.136172 C 64.857965 3.796716 67.541626 3.126988 70.358283 3.126988 C 73.17494 3.126988 75.858601 3.796716 78.399767 5.136172 C 80.945683 6.470878 83.173359 8.394564 85.082796 10.911981 Z M 66.382664 41.852458 C 67.627123 42.655181 68.952329 43.054168 70.358283 43.054168 C 71.764236 43.054168 73.084693 42.655181 74.329152 41.852458 C 75.57361 41.044985 76.651825 39.962021 77.568544 38.613065 C 78.490014 37.25936 79.22624 35.677662 79.772472 33.867972 C 80.328203 32.053532 80.608444 30.129846 80.608444 28.092163 C 80.608444 26.04973 80.328203 24.126044 79.772472 22.316354 C 79.22624 20.501914 78.490014 18.910716 77.568544 17.533262 C 76.651825 16.160557 75.57361 15.072843 74.329152 14.27487 C 73.084693 13.472146 71.764236 13.073159 70.358283 13.073159 C 68.952329 13.073159 67.627123 13.472146 66.382664 14.27487 C 65.147705 15.072843 64.059991 16.160557 63.119522 17.533262 C 62.188553 18.910716 61.442828 20.501914 60.887096 22.316354 C 60.340864 24.126044 60.065373 26.04973 60.065373 28.092163 C 60.065373 30.129846 60.340864 32.053532 60.887096 33.867972 C 61.442828 35.677662 62.188553 37.25936 63.119522 38.613065 C 64.059991 39.962021 65.147705 41.044985 66.382664 41.852458 Z M 128.425113 27.835671 C 129.256336 27.835671 129.954562 28.130162 130.519794 28.719142 C 131.094525 29.298623 131.379515 29.9921 131.379515 30.804323 L 131.379515 50.031688 C 131.379515 50.87241 131.094525 51.580136 130.519794 52.154867 C 129.954562 52.720099 129.256336 53.000339 128.425113 53.000339 L 120.231634 53.000339 C 116.346262 53.000339 112.940625 52.278363 110.005222 50.843911 C 107.074569 49.404708 104.61415 47.509521 102.619216 45.163099 C 100.633782 42.816676 99.137581 40.156764 98.135364 37.178613 C 97.128398 34.195711 96.624914 31.146312 96.624914 28.030415 C 96.624914 24.819521 97.114148 21.765372 98.097366 18.872718 C 99.085333 15.970564 100.538785 13.396149 102.448222 11.158973 C 104.656899 8.50856 107.255063 6.504127 110.247464 5.136172 C 113.249365 3.763467 116.579005 3.07474 120.231634 3.07474 L 125.052725 3.07474 C 126.187937 3.07474 127.175904 2.704252 128.016627 1.958527 L 128.21612 1.763783 C 128.482111 1.602289 128.748102 1.583289 129.009344 1.716285 C 129.280085 1.844531 129.41783 2.077273 129.41783 2.414512 L 129.41783 13.67164 C 129.41783 14.008879 129.275335 14.232121 128.985594 14.346117 C 128.710104 14.460114 128.453612 14.403116 128.21612 14.175123 C 127.380148 13.438897 126.39218 13.073159 125.247468 13.073159 L 120.231634 13.073159 C 115.904527 13.073159 112.522639 14.540861 110.07647 17.485764 C 108.974506 18.858468 108.110035 20.463915 107.487805 22.292605 C 106.875076 24.116544 106.571086 26.030731 106.571086 28.030415 C 106.571086 29.436369 106.780079 31.003817 107.193315 32.72801 C 107.611301 34.452203 108.333277 36.090898 109.354494 37.634597 C 110.37571 39.173547 111.767414 40.460754 113.524856 41.49622 C 115.282298 42.536435 117.514724 43.054168 120.231634 43.054168 C 120.597372 43.054168 120.887112 42.940172 121.100855 42.71218 C 121.324098 42.474687 121.433344 42.189697 121.433344 41.852458 L 121.433344 37.929088 C 121.433344 37.829341 121.400095 37.781843 121.333597 37.781843 C 120.730367 37.781843 120.226884 37.981336 119.827897 38.380323 L 119.276915 38.936054 C 119.006174 39.107049 118.725934 39.116548 118.440943 38.969303 C 118.160702 38.817308 118.022957 38.584566 118.022957 38.285326 L 118.022957 27.137445 C 118.022957 26.800206 118.160702 26.567463 118.440943 26.439218 C 118.725934 26.296722 119.006174 26.310972 119.276915 26.472466 L 119.471659 26.68146 C 120.312381 27.450934 121.300349 27.835671 122.440311 27.835671 Z M 183.152804 52.093119 C 183.228801 52.330612 183.186053 52.544355 183.029308 52.729598 C 182.882063 52.910092 182.677819 53.000339 182.407078 53.000339 L 170.85546 53.000339 C 170.518221 53.000339 170.280729 52.867344 170.142984 52.596603 C 170.009988 52.325862 170.033737 52.059871 170.204732 51.798629 L 170.204732 51.751131 C 170.736714 51.143151 170.902959 50.440174 170.708215 49.6422 L 169.197765 44.417373 C 169.026771 43.842642 168.722781 43.396157 168.290545 43.077917 C 167.858309 42.759678 167.354826 42.602933 166.780095 42.602933 L 156.886172 42.602933 C 156.320941 42.602933 155.817457 42.759678 155.375722 43.077917 C 154.943486 43.396157 154.644246 43.842642 154.482752 44.417373 L 152.924803 49.6422 C 152.72056 50.440174 152.905804 51.16215 153.475785 51.798629 C 153.675278 52.026622 153.713277 52.283113 153.599281 52.572854 C 153.485284 52.857844 153.262042 53.000339 152.924803 53.000339 L 141.263939 53.000339 C 141.002697 53.000339 140.793704 52.910092 140.636959 52.729598 C 140.489714 52.544355 140.432716 52.330612 140.465965 52.093119 C 140.499214 51.926875 140.579961 51.77963 140.712957 51.637135 C 141.886168 50.639667 142.679392 49.433207 143.078379 48.022504 L 155.033733 6.485127 C 155.294975 5.653905 155.12873 4.931929 154.53025 4.328699 C 154.359256 4.057958 154.349756 3.782467 154.497001 3.506976 C 154.648996 3.221985 154.876988 3.07474 155.180978 3.07474 L 168.43779 3.07474 C 168.775029 3.07474 169.007771 3.221985 169.136017 3.506976 C 169.273762 3.782467 169.259513 4.057958 169.088519 4.328699 C 168.523287 4.931929 168.361793 5.653905 168.599285 6.485127 L 180.592638 47.970256 C 181.001125 49.452207 181.770599 50.672916 182.910562 51.637135 C 183.072056 51.746381 183.152804 51.898376 183.152804 52.093119 Z M 165.079651 32.656762 C 165.241146 32.656762 165.378891 32.580765 165.492888 32.433519 C 165.616383 32.281524 165.644882 32.10578 165.578385 31.906287 L 162.367491 20.696657 C 162.296243 20.435416 162.115749 20.30717 161.826009 20.30717 C 161.550518 20.30717 161.379523 20.435416 161.313026 20.696657 L 158.040384 31.906287 C 157.973886 32.10578 158.007135 32.281524 158.135381 32.433519 C 158.277876 32.580765 158.425121 32.656762 158.591366 32.656762 Z M 262.047695 52.093119 C 262.118943 52.330612 262.080944 52.544355 261.924199 52.729598 C 261.776954 52.910092 261.567961 53.000339 261.29722 53.000339 L 249.745602 53.000339 C 249.413113 53.000339 249.175621 52.867344 249.037875 52.596603 C 248.90488 52.325862 248.923879 52.059871 249.099623 51.798629 L 249.099623 51.751131 C 249.626856 51.143151 249.79785 50.440174 249.598357 49.6422 L 248.092657 44.417373 C 247.921662 43.842642 247.617672 43.396157 247.185437 43.077917 C 246.753201 42.759678 246.249718 42.602933 245.674987 42.602933 L 235.781064 42.602933 C 235.215832 42.602933 234.712349 42.759678 234.270614 43.077917 C 233.838378 43.396157 233.539138 43.842642 233.377643 44.417373 L 231.819695 49.6422 C 231.615451 50.440174 231.800695 51.16215 232.370676 51.798629 C 232.56542 52.026622 232.608169 52.283113 232.494172 52.572854 C 232.380176 52.857844 232.152184 53.000339 231.819695 53.000339 L 220.15883 53.000339 C 219.892839 53.000339 219.688596 52.910092 219.531851 52.729598 C 219.384606 52.544355 219.327608 52.330612 219.360857 52.093119 C 219.394105 51.926875 219.474853 51.77963 219.603099 51.637135 C 220.78106 50.639667 221.569534 49.433207 221.97327 48.022504 L 233.928625 6.485127 C 234.189866 5.653905 234.023622 4.931929 233.425142 4.328699 C 233.254147 4.057958 233.239898 3.782467 233.387143 3.506976 C 233.543888 3.221985 233.77188 3.07474 234.07587 3.07474 L 247.332682 3.07474 C 247.665171 3.07474 247.897913 3.221985 248.030909 3.506976 C 248.168654 3.782467 248.154405 4.057958 247.98341 4.328699 C 247.418179 4.931929 247.251934 5.653905 247.489427 6.485127 L 259.48278 47.970256 C 259.891267 49.452207 260.665491 50.672916 261.800703 51.637135 C 261.966948 51.746381 262.047695 51.898376 262.047695 52.093119 Z M 243.969793 32.656762 C 244.136037 32.656762 244.273783 32.580765 244.387779 32.433519 C 244.511275 32.281524 244.539774 32.10578 244.473276 31.906287 L 241.262382 20.696657 C 241.186385 20.435416 241.005891 20.30717 240.7209 20.30717 C 240.445409 20.30717 240.274415 20.435416 240.207917 20.696657 L 236.930526 31.906287 C 236.868778 32.10578 236.902027 32.281524 237.030272 32.433519 C 237.168018 32.580765 237.320013 32.656762 237.486257 32.656762 Z M 301.024907 9.097541 C 302.397611 10.774236 303.442577 12.674173 304.164553 14.802102 C 304.881779 16.925282 305.242767 19.162458 305.242767 21.508881 C 305.242767 23.812554 304.881779 26.025981 304.164553 28.144411 C 303.442577 30.253341 302.397611 32.139029 301.024907 33.806224 C 299.41471 35.75366 297.486274 37.235611 295.234848 38.261577 C 292.997672 39.282793 290.556253 39.791026 287.91534 39.791026 L 284.59045 39.791026 C 284.058468 39.791026 283.611982 39.97627 283.241495 40.346758 C 282.875757 40.712496 282.690513 41.163731 282.690513 41.695713 L 282.690513 49.024721 C 282.690513 50.031688 283.056251 50.938908 283.792476 51.751131 C 283.99197 52.012372 284.029968 52.283113 283.915972 52.572854 C 283.801976 52.857844 283.578733 53.000339 283.241495 53.000339 L 271.88462 53.000339 C 271.552131 53.000339 271.314639 52.857844 271.176893 52.572854 C 271.043898 52.283113 271.096146 52.012372 271.333638 51.751131 C 272.274107 50.744164 272.744342 49.551953 272.744342 48.179249 L 272.744342 7.895831 C 272.744342 6.523126 272.274107 5.330915 271.333638 4.328699 C 271.096146 4.057958 271.043898 3.782467 271.176893 3.506976 C 271.314639 3.221985 271.552131 3.07474 271.88462 3.07474 L 287.91534 3.07474 C 290.556253 3.07474 292.997672 3.597223 295.234848 4.632689 C 297.486274 5.672904 299.41471 7.159605 301.024907 9.097541 Z M 293.334911 27.479433 C 293.97139 26.709959 294.460624 25.816988 294.793113 24.795772 C 295.130351 23.774556 295.296596 22.677342 295.296596 21.508881 C 295.296596 21.271388 295.244348 20.701407 295.139851 19.803687 C 295.040104 18.896467 294.755114 17.941749 294.28013 16.934782 C 293.814645 15.927815 293.087919 15.025345 292.095202 14.222621 C 291.116734 13.424648 289.72028 13.020911 287.91534 13.020911 L 284.086967 13.020911 C 283.721229 13.020911 283.39349 13.163407 283.108499 13.453147 C 282.828258 13.728638 282.690513 14.051627 282.690513 14.422115 L 282.690513 28.4864 C 282.690513 28.852138 282.828258 29.170377 283.108499 29.441118 C 283.39349 29.711859 283.721229 29.844855 284.086967 29.844855 L 287.91534 29.844855 C 290.285512 29.844855 292.090452 29.056381 293.334911 27.479433 Z M 345.217445 9.097541 C 346.59015 10.774236 347.635116 12.674173 348.357092 14.802102 C 349.074318 16.925282 349.435306 19.162458 349.435306 21.508881 C 349.435306 23.812554 349.074318 26.025981 348.357092 28.144411 C 347.635116 30.253341 346.59015 32.139029 345.217445 33.806224 C 343.607249 35.75366 341.678812 37.235611 339.427387 38.261577 C 337.190211 39.282793 334.748792 39.791026 332.107879 39.791026 L 328.782989 39.791026 C 328.251006 39.791026 327.804521 39.97627 327.434033 40.346758 C 327.068296 40.712496 326.883052 41.163731 326.883052 41.695713 L 326.883052 49.024721 C 326.883052 50.031688 327.24879 50.938908 327.985015 51.751131 C 328.184509 52.012372 328.222507 52.283113 328.108511 52.572854 C 327.994515 52.857844 327.771272 53.000339 327.434033 53.000339 L 316.077159 53.000339 C 315.74467 53.000339 315.507178 52.857844 315.369432 52.572854 C 315.236437 52.283113 315.288685 52.012372 315.526177 51.751131 C 316.466646 50.744164 316.93688 49.551953 316.93688 48.179249 L 316.93688 7.895831 C 316.93688 6.523126 316.466646 5.330915 315.526177 4.328699 C 315.288685 4.057958 315.236437 3.782467 315.369432 3.506976 C 315.507178 3.221985 315.74467 3.07474 316.077159 3.07474 L 332.107879 3.07474 C 334.748792 3.07474 337.190211 3.597223 339.427387 4.632689 C 341.678812 5.672904 343.607249 7.159605 345.217445 9.097541 Z M 337.52745 27.479433 C 338.163929 26.709959 338.653163 25.816988 338.985652 24.795772 C 339.32289 23.774556 339.489135 22.677342 339.489135 21.508881 C 339.489135 21.271388 339.436887 20.701407 339.33239 19.803687 C 339.232643 18.896467 338.947653 17.941749 338.472668 16.934782 C 338.007184 15.927815 337.280458 15.025345 336.287741 14.222621 C 335.309273 13.424648 333.912819 13.020911 332.107879 13.020911 L 328.279505 13.020911 C 327.913768 13.020911 327.586028 13.163407 327.301038 13.453147 C 327.020797 13.728638 326.883052 14.051627 326.883052 14.422115 L 326.883052 28.4864 C 326.883052 28.852138 327.020797 29.170377 327.301038 29.441118 C 327.586028 29.711859 327.913768 29.844855 328.279505 29.844855 L 332.107879 29.844855 C 334.478051 29.844855 336.282991 29.056381 337.52745 27.479433 Z M 337.52745 27.479433 " transform="matrix(0.822396,0,0,0.822396,42.141563,219.744785)"/>
</g>
</svg>
